<?xml version="1.0"?>
<svg xmlns="http://www.w3.org/2000/svg" version="1" viewBox="0 0 26 26" enable-background="new 0 0 26 26">
    <path
            style="text-indent:0;text-align:start;line-height:normal;text-transform:none;block-progression:tb;-inkscape-font-specification:Bitstream Vera Sans"
            d="M 6 0 L 6 2 L 4 2 L 4 4 L 6 4 L 6 6 L 4 6 L 4 8 L 6 8 L 6 10 L 4 10 L 4 12 L 6 12 L 6 14 L 4 14 L 4 16 L 6 16 L 6 18 L 4 18 L 4 20 L 6 20 L 6 22 L 4 22 L 4 24 L 6 24 L 6 26 L 8 26 L 8 0 L 6 0 z M 17 0 L 17 2 L 9 2 L 9 4 L 17 4 L 17 6 L 9 6 L 9 8 L 17 8 L 17 10 L 9 10 L 9 12 L 17 12 L 17 14 L 9 14 L 9 16 L 17 16 L 17 18 L 9 18 L 9 20 L 17 20 L 17 22 L 9 22 L 9 24 L 17 24 L 17 26 L 19 26 L 19 0 L 17 0 z M 20 2 L 20 4 L 22 4 L 22 2 L 20 2 z M 20 6 L 20 8 L 22 8 L 22 6 L 20 6 z M 20 10 L 20 12 L 22 12 L 22 10 L 20 10 z M 20 14 L 20 16 L 22 16 L 22 14 L 20 14 z M 20 18 L 20 20 L 22 20 L 22 18 L 20 18 z M 20 22 L 20 24 L 22 24 L 22 22 L 20 22 z"/>
</svg>
